# xmcd CD database file
#
# Track frame offsets:
#	150
#	43695
#	76639
#	92568
#	116234
#	135703
#	179586
#	204782
#	231218
#	253507
#	274357
#	306473
#	330804
#
# Disc length: 4728 seconds
#
# Revision: 0
# Processed by: cddbd v1.5.2PL0 Copyright (c) Steve Scherf et al.
# Submitted via: CDex 1.83
#
DISCID=ae12760d
DTITLE=Teddy Edwards - And Howard McGhee Together Again
DYEAR=1961
DGENRE=Jazz
TTITLE0=Together Again
TTITLE1=You Stepped Out Of A Dream
TTITLE2=Up There
TTITLE3=Perhaps
TTITLE4=Misty
TTITLE5=Sandy
TTITLE6=Our Love Is Here To Stay
TTITLE7=Frankly Speaking
TTITLE8=Fools Rush In
TTITLE9=Undecided
TTITLE10=Beve's Comjumulations
TTITLE11=Willow Weep For Me
TTITLE12=Lover Come Back To Me
EXTD=YEAR: 1961
EXTT0=
EXTT1=
EXTT2=
EXTT3=
EXTT4=
EXTT5=
EXTT6=
EXTT7=
EXTT8=
EXTT9=
EXTT10=
EXTT11=
EXTT12=
PLAYORDER=
